# xmcd
# 
# Track frame offsets:
#     150
#     10350
#     22725
#     31950
#     48300
#     61350
#     72637
#     81750
#     89325
#     99375
#     112500
#     125850
#     135375
#     146325
#     159975
#     170625
#     182100
#     194175
#     205200
#     218475
#     226125
#     234375
#     245325
#     249375
# 
# Disc length: 3460
# 
# Revision: 3
# Processed by: cddbd v1.5.2PL0 Copyright (c) Steve Scherf et al.
# Submitted via: BonkEnc v1.0.5
# 
DISCID=420d8218
DTITLE=Various Artist - King's of Country and Western
DYEAR=1977
DGENRE=Country
TTITLE0=Sleepy Labeef - Ghost Riders In The Sky
TTITLE1=Sleepy Labeef - Asphalt Cowboy
TTITLE2=Sleepy Labeef - Cool Water
TTITLE3=Sleepy Labeef - Streets Of Laredo
TTITLE4=Sleepy Labeef - Me And Bobby McGee
TTITLE5=Sleepy Labeef - Mule Train
TTITLE6=Jerry Lee Lewis - Jambalaya
TTITLE7=Jerry Lee Lewis - Waiting For A Train
TTITLE8=Jerry Lee Lewis - Your Cheatin' Heart
TTITLE9=Jerry Lee Lewis - Good Night Irene
TTITLE10=Jerry Lee Lewis - You Win Again
TTITLE11=Jerry Lee Lewis - One Minute Past Eternity
TTITLE12=Fuzzy Walker And His Hilbilly's - She' ll Be Comin' Round The Mountain
TTITLE13=Fuzzy Walker And His Hilbilly's - Tom Dooley
TTITLE14=Fuzzy Walker And His Hilbilly's - Whisky-Time In Tennessee
TTITLE15=Fuzzy Walker And His Hilbilly's - The Fast Gun Of Sheriff Brown
TTITLE16=Fuzzy Walker And His Hilbilly's - Banjo Benny
TTITLE17=Fuzzy Walker And His Hilbilly's - Bonanza
TTITLE18=Johnny Cash - Folsom Prison Blues
TTITLE19=Johnny Cash - Hey, Good Looking
TTITLE20=Johnny Cash - Sugartime
TTITLE21=Johnny Cash - Belshazah
TTITLE22=Johnny Cash - Cold, Cold Heart
TTITLE23=Johnny Cash - Rock Island Line???????
EXTD=YEAR: 1977
EXTT0=
EXTT1=
EXTT2=
EXTT3=
EXTT4=
EXTT5=
EXTT6=
EXTT7=
EXTT8=
EXTT9=
EXTT10=
EXTT11=
EXTT12=
EXTT13=
EXTT14=
EXTT15=
EXTT16=
EXTT17=
EXTT18=
EXTT19=
EXTT20=
EXTT21=
EXTT22=
EXTT23=
PLAYORDER=
